<?xml version="1.0" encoding="UTF-8"?>
<svg xmlns="http://www.w3.org/2000/svg" xmlns:xlink="http://www.w3.org/1999/xlink" width="2401" height="2401" viewBox="0 0 2401 2401">
<path fill-rule="evenodd" fill="rgb(100%, 100%, 100%)" fill-opacity="1" d="M 0 1 L 2400 1 L 2400 2401 L 0 2401 L 0 1 "/>
<path fill-rule="evenodd" fill="rgb(0%, 0%, 0%)" fill-opacity="1" d="M 1279.871094 1812.183594 L 1200 1768.183594 C 1103.449219 1719.894531 1021.898438 1646.195312 964.171875 1555.894531 C 905.21875 1463.675781 871.042969 1353.910156 871.042969 1235.96875 L 871.042969 1033.210938 L 793.789062 1033.210938 L 793.789062 1235.96875 C 793.789062 1368.789062 832.503906 1492.769531 899.289062 1597.242188 C 968.207031 1705.046875 1066.960938 1791.859375 1183.851562 1845.972656 L 1200 1853.449219 L 1216.148438 1845.972656 C 1238.050781 1835.832031 1259.320312 1824.542969 1279.871094 1812.183594 Z M 929.734375 945.019531 L 793.789062 945.019531 L 793.789062 867.761719 L 1155.550781 867.761719 L 1155.550781 945.019531 L 1006.988281 945.019531 L 1006.988281 1235.96875 C 1006.988281 1315.171875 1027.261719 1390.980469 1063.828125 1457.378906 C 1100.820312 1524.53125 1154.410156 1582.117188 1220.519531 1623.914062 L 1267.828125 1653.773438 L 1321.359375 1687.558594 L 1344.800781 1702.351562 L 1389.128906 1730.328125 C 1369.210938 1748.675781 1348.179688 1765.828125 1326.160156 1781.679688 L 1303.75 1767.535156 L 1255.121094 1736.835938 L 1255.121094 1736.839844 L 1226.789062 1718.953125 L 1179.480469 1689.097656 C 1102.078125 1640.160156 1039.398438 1572.875 996.230469 1494.496094 C 953.445312 1416.820312 929.734375 1328.289062 929.734375 1235.96875 Z M 1371.628906 1639.09375 L 1406.628906 1661.183594 L 1437.679688 1680.78125 C 1454.761719 1661.453125 1470.761719 1641.132812 1485.558594 1619.914062 L 1447.671875 1595.996094 L 1420.429688 1578.800781 L 1393.511719 1561.8125 L 1339.351562 1527.625 C 1282.449219 1491.652344 1236.308594 1442.085938 1204.46875 1384.269531 C 1172.988281 1327.121094 1155.550781 1261.859375 1155.550781 1193.660156 L 1155.550781 1033.210938 L 1078.289062 1033.210938 L 1078.289062 1193.660156 C 1078.289062 1274.980469 1099.179688 1352.960938 1136.871094 1421.390625 C 1174.898438 1490.429688 1230.109375 1549.699219 1298.300781 1592.808594 L 1352.46875 1626.996094 L 1371.628906 1639.09375 "/>
<path fill-rule="evenodd" fill="rgb(0%, 0%, 0%)" fill-opacity="1" d="M 1454.679688 1524.277344 L 1509.800781 1559.066406 L 1519.851562 1565.410156 C 1532.5 1542.980469 1543.898438 1519.765625 1553.960938 1495.851562 C 1563.050781 1474.246094 1571.039062 1452.070312 1577.859375 1429.398438 C 1585.628906 1403.574219 1591.878906 1377.101562 1596.519531 1350.089844 L 1574.070312 1335.910156 C 1556.398438 1324.738281 1540.261719 1311.628906 1525.878906 1296.941406 C 1508.878906 1279.558594 1494.328125 1259.949219 1482.628906 1238.710938 C 1461.289062 1199.96875 1449.46875 1155.699219 1449.46875 1109.429688 L 1449.46875 867.761719 L 1225.328125 867.761719 L 1225.328125 1153.039062 C 1225.328125 1223.789062 1243.511719 1291.648438 1276.308594 1351.199219 C 1309.398438 1411.269531 1357.449219 1462.847656 1416.800781 1500.363281 L 1440.21875 1515.144531 Z M 1553.960938 1495.851562 L 1550.839844 1493.882812 L 1487.800781 1454.09375 L 1489.460938 1455.140625 L 1550.839844 1493.882812 Z M 1487.800781 1454.089844 L 1481.261719 1449.964844 L 1457.839844 1435.179688 C 1409.78125 1404.800781 1370.808594 1362.929688 1343.910156 1314.078125 C 1326.410156 1282.308594 1314.050781 1247.570312 1307.640625 1211.109375 L 1387.550781 1211.109375 C 1394.511719 1233.640625 1403.738281 1255.320312 1415.03125 1275.828125 C 1438.421875 1318.289062 1470.730469 1355.710938 1510.121094 1385.289062 C 1504.050781 1408.828125 1496.578125 1431.792969 1487.800781 1454.089844 Z M 1302.578125 1133.851562 L 1302.578125 945.019531 L 1372.210938 945.019531 L 1372.210938 1109.429688 C 1372.210938 1117.621094 1372.5 1125.761719 1373.078125 1133.851562 Z M 1528.960938 1216.300781 C 1539.039062 1231.808594 1550.519531 1245.949219 1563.179688 1258.46875 C 1575.699219 1270.851562 1589.378906 1281.628906 1604.011719 1290.570312 C 1605.46875 1272.558594 1606.210938 1254.351562 1606.210938 1235.96875 L 1606.210938 867.761719 L 1528.960938 867.761719 L 1528.960938 1216.300781 "/>
<path fill-rule="evenodd" fill="rgb(0%, 0%, 0%)" fill-opacity="1" d="M 958.488281 713.25 L 1035.300781 713.25 C 1125.890625 713.25 1200 639.140625 1200 548.550781 C 1200 639.140625 1274.109375 713.25 1364.699219 713.25 L 1441.511719 713.25 C 1532.101562 713.25 1606.210938 639.140625 1606.210938 548.550781 L 1606.210938 790.511719 L 793.789062 790.511719 L 793.789062 548.550781 C 793.789062 639.140625 867.902344 713.25 958.488281 713.25 "/>
</svg>
